# xmcd
#
# Track frame offsets: 
#        150
#        19539
#        52211
#        85881
#        120430
#        145775
#        163621
#        184309
#        203504
#        224057
#
# Disc length: 3237 seconds
#
# Revision: 0
# Processed by: cddbd v1.5.1PL2 Copyright (c) Steve Scherf et al.
# Submitted via: ExactAudioCopy v0.95b3
#
DISCID=8c0ca30a
DTITLE=Jason Ricci and New Blood - Blood On The Road
DYEAR=2005
DGENRE=Blues
TTITLE0=Snowflakes and Horses
TTITLE1=Mellow Down Easy
TTITLE2=Down At The Juke
TTITLE3=Blues Penitentiary
TTITLE4=Marmoset>Baked Potato
TTITLE5=Roll All Day
TTITLE6=My Heads A Bad Neighborhood
TTITLE7=The World Just Wrong
TTITLE8=The One Least In Love
TTITLE9=Walter's World
EXTD=
EXTT0=
EXTT1=
EXTT2=
EXTT3=
EXTT4=
EXTT5=
EXTT6=
EXTT7=
EXTT8=
EXTT9=
PLAYORDER=
